PathFileType	4	(X/Y/Z)	G:/My Drive/Project Folder - EPSRC SCI-FES/EPSRC-SCI-FES/Technical/Trial Tests/04122019 - Marker Volunteer01/Rosti Data/New Session 101.trc	
DataRate	CameraRate	NumFrames	NumMarkers	Units	OrigDataRate	OrigDataStartFrame	OrigNumFrames	
100.00	100.00	9	14	mm	100.00	85	337	
Frame#	Time	C7			PX			T8			IJ			SC			AC			AI			TS			AA			GH			LE			ME			US			RS			
		X1	Y1	Z1	X2	Y2	Z2	X3	Y3	Z3	X4	Y4	Z4	X5	Y5	Z5	X6	Y6	Z6	X7	Y7	Z7	X8	Y8	Z8	X9	Y9	Z9	X10	Y10	Z10	X11	Y11	Z11	X12	Y12	Z12	X13	Y13	Z13	X14	Y14	Z14	

85	0.840	665.34875	-15.59242	1540.24951	445.22446	-35.74091	1289.14856	746.00781	-6.83963	1325.83386	508.75842	-37.12233	1431.67346	512.54163	-11.93621	1440.15466	579.78320	131.56926	1485.81812	709.42316	70.78667	1464.20288	742.29913	75.84606	1346.27161	649.49854	183.81961	1444.06958	609.73828	194.38867	1458.07739	539.79541	284.32001	1184.66553	507.75513	201.52843	1146.32117	449.77618	372.46881	935.75226	394.79654	406.81927	982.19800 
86	0.850	665.37555	-15.60018	1540.25085	445.20477	-35.76417	1289.17432	746.02722	-6.85367	1325.82776	508.75555	-37.13167	1431.68604	512.54529	-11.94890	1440.16284	579.79425	131.55315	1485.82153	709.42737	70.77636	1464.20642	742.29767	75.83784	1346.26428	649.50092	183.80569	1444.07983	609.74335	194.37770	1458.08777	539.77032	284.31326	1184.69141	507.66129	201.51384	1146.38330	449.78424	372.54279	935.79041	394.72412	406.76752	982.20819 
87	0.860	665.40155	-15.61059	1540.25122	445.18405	-35.78627	1289.19836	746.04340	-6.86772	1325.81799	508.75693	-37.14605	1431.69934	512.54871	-11.96154	1440.17212	579.80719	131.53609	1485.82703	709.43451	70.75898	1464.19910	742.29938	75.83218	1346.25854	649.50391	183.79358	1444.08948	609.75122	194.36766	1458.10144	539.74542	284.31033	1184.71680	507.54913	201.50409	1146.44922	449.80447	372.63501	935.83026	394.66367	406.75916	982.24176 
88	0.870	665.42450	-15.62335	1540.24792	445.16403	-35.80670	1289.21997	746.05273	-6.87712	1325.80994	508.76300	-37.16342	1431.71350	512.55273	-11.97316	1440.18262	579.82220	131.51892	1485.83533	709.44678	70.73985	1464.18372	742.30420	75.82912	1346.25391	649.50946	183.78146	1444.09631	609.75970	194.35645	1458.11621	539.72150	284.31265	1184.74219	507.41925	201.50008	1146.51831	449.82617	372.73560	935.87128	394.61523	406.77478	982.28827 
89	0.880	665.44397	-15.63781	1540.23999	445.14679	-35.82515	1289.23962	746.05536	-6.87792	1325.80554	508.77347	-37.18083	1431.72803	512.55841	-11.98307	1440.19495	579.83881	131.50232	1485.84717	709.46405	70.72531	1464.16870	742.31134	75.82851	1346.24988	649.51794	183.76740	1444.10010	609.76715	194.34323	1458.13135	539.69928	284.31665	1184.76904	507.27374	201.50266	1146.59009	449.83865	372.83194	935.91315	394.57584	406.79599	982.33997 
90	0.890	665.46185	-15.65349	1540.22937	445.13409	-35.84103	1289.25745	746.05835	-6.87502	1325.80225	508.78738	-37.19538	1431.74219	512.56653	-11.99104	1440.20898	579.85583	131.48671	1485.86243	709.48499	70.71630	1464.16064	742.32001	75.82999	1346.24609	649.52875	183.75124	1444.10339	609.77429	194.32996	1458.14795	539.67822	284.31760	1184.79736	507.11551	201.51251	1146.66382	449.83258	372.91037	935.95575	394.54074	406.81293	982.39185 
91	0.900	665.48138	-15.66990	1540.21899	445.12625	-35.85407	1289.27490	746.06628	-6.87458	1325.79602	508.80368	-37.20509	1431.75513	512.57770	-11.99726	1440.22437	579.87231	131.47224	1485.88013	709.50757	70.70654	1464.16089	742.32959	75.83314	1346.24255	649.54059	183.73671	1444.11035	609.78333	194.31946	1458.16760	539.65790	284.31421	1184.82666	506.94775	201.52983	1146.73889	449.80203	372.95963	935.99902	394.50305	406.81967	982.43970 
92	0.910	665.50525	-15.68647	1540.21106	445.12122	-35.86519	1289.29419	746.07587	-6.87434	1325.78918	508.82141	-37.20935	1431.76624	512.59216	-12.00222	1440.24072	579.88751	131.45876	1485.89868	709.52881	70.69353	1464.16785	742.33997	75.83726	1346.23914	649.55188	183.72874	1444.12451	609.79523	194.31316	1458.19128	539.63867	284.30780	1184.85474	506.77386	201.55414	1146.81494	449.74725	372.97552	936.04285	394.45547	406.81100	982.47961 
93	0.920	665.53516	-15.70268	1540.20642	445.11627	-35.87577	1289.31812	746.08374	-6.87133	1325.78638	508.83997	-37.20892	1431.77563	512.60999	-12.00652	1440.25720	579.90161	131.44586	1485.91663	709.54602	70.67963	1464.17798	742.35156	75.84136	1346.23633	649.56165	183.72757	1444.14441	609.80945	194.30974	1458.21790	539.62158	284.30209	1184.87903	506.59735	201.58427	1146.89160	449.67548	372.96304	936.08698	394.39606	406.79062	982.51044 
